<svg xmlns="http://www.w3.org/2000/svg" width="40.366" height="60.558" viewBox="0 0 40.366 60.558">
  <path id="Icon_awesome-lightbulb" data-name="Icon awesome-lightbulb" d="M11.016,53.739a3.872,3.872,0,0,0,.615,2.092l1.96,3.039a3.64,3.64,0,0,0,3.055,1.689h7.077a3.64,3.64,0,0,0,3.055-1.689l1.96-3.039a3.869,3.869,0,0,0,.615-2.092l0-4.536H11.01l.006,4.536ZM0,20.817A21.079,21.079,0,0,0,5,34.511a34.265,34.265,0,0,1,5.987,10.816c0,.031.008.062.013.092H29.371c0-.031.008-.06.013-.092a34.265,34.265,0,0,1,5.987-10.816,21.079,21.079,0,0,0,5-13.694C40.366,9.3,31.3-.035,20.12,0,8.422.037,0,9.813,0,20.817Zm20.183-9.462a9.332,9.332,0,0,0-9.174,9.462,1.836,1.836,0,1,1-3.67,0A13.064,13.064,0,0,1,20.183,7.57a1.893,1.893,0,0,1,0,3.785Z" transform="translate(0 0)"/>
</svg>
