<svg xmlns="http://www.w3.org/2000/svg" width="45.305" height="45.49" viewBox="0 0 45.305 45.49">
  <path id="Icon_awesome-tools" data-name="Icon awesome-tools" d="M44.339,35.153,33.978,24.75a6.55,6.55,0,0,0-7.556-1.235l-9.432-9.47V8.529L5.664,0,0,5.686,8.5,17.057H13.99l9.432,9.47a6.631,6.631,0,0,0,1.23,7.587l10.361,10.4a3.28,3.28,0,0,0,4.663,0l4.663-4.682a3.329,3.329,0,0,0,0-4.682ZM29.35,19.989a9.291,9.291,0,0,1,6.627,2.754l1.717,1.723a12.522,12.522,0,0,0,3.876-2.621A12.811,12.811,0,0,0,44.923,9.7a1.058,1.058,0,0,0-1.778-.489l-6.583,6.61-6.008-1-1-6.032,6.583-6.61a1.074,1.074,0,0,0-.5-1.795A12.636,12.636,0,0,0,19.9,12.953l7.264,7.294A9.6,9.6,0,0,1,29.35,19.989Zm-9.193,7.285L15.14,22.236,1.656,35.784a5.674,5.674,0,0,0,8.008,8.04L20.6,32.844a9.576,9.576,0,0,1-.442-5.57ZM5.664,41.932A2.132,2.132,0,1,1,7.787,39.8,2.134,2.134,0,0,1,5.664,41.932Z" transform="translate(0.004)"/>
</svg>
