<svg xmlns="http://www.w3.org/2000/svg" width="41.412" height="28.879" viewBox="0 0 41.412 28.879">
  <g id="Icon_ionic-ios-mail" data-name="Icon ionic-ios-mail" transform="translate(-3.375 -7.875)">
    <path id="Path_119" data-name="Path 119" d="M44.448,10.378,33.737,21.817a.209.209,0,0,0,0,.292l7.5,8.371a1.4,1.4,0,0,1,0,1.92,1.256,1.256,0,0,1-1.832,0l-7.466-8.34a.2.2,0,0,0-.289,0L29.825,26a7.837,7.837,0,0,1-5.714,2.526,8,8,0,0,1-5.833-2.6l-1.752-1.868a.2.2,0,0,0-.289,0L8.77,32.4a1.256,1.256,0,0,1-1.832,0,1.4,1.4,0,0,1,0-1.92l7.5-8.371a.23.23,0,0,0,0-.292L3.713,10.378a.2.2,0,0,0-.338.146V33.414a3.275,3.275,0,0,0,3.186,3.34H41.6a3.275,3.275,0,0,0,3.186-3.34V10.524A.2.2,0,0,0,44.448,10.378Z"/>
    <path id="Path_120" data-name="Path 120" d="M24.079,20.749A6.9,6.9,0,0,0,28.042,19.6l15.9-11.229a4.138,4.138,0,0,0-2.007-.492H6.232a4.109,4.109,0,0,0-2.007.492L20.127,19.6A6.9,6.9,0,0,0,24.079,20.749Z"/>
  </g>
</svg>
