<svg xmlns="http://www.w3.org/2000/svg" width="54.125" height="48.84" viewBox="0 0 54.125 48.84">
  <path id="Icon_awesome-mail-bulk" data-name="Icon awesome-mail-bulk" d="M15.035,42.735c-2.406,0-4.811-2.137-6.014-3.052C3.007,35.409,1.2,33.883,0,32.967v12.82A3.03,3.03,0,0,0,3.007,48.84H27.062a3.03,3.03,0,0,0,3.007-3.052V32.967c-1.2.916-3.007,2.442-9.021,6.715C19.846,40.6,17.44,42.735,15.035,42.735ZM27.062,24.42H3.007A3.03,3.03,0,0,0,0,27.472V29C2.406,30.83,2.1,30.83,10.825,37.24c.9.611,2.706,2.442,4.21,2.442s3.308-1.831,4.21-2.137c8.72-6.41,8.419-6.41,10.825-8.242V27.472A3.03,3.03,0,0,0,27.062,24.42Zm24.055-9.157H21.048a3.03,3.03,0,0,0-3.007,3.052v3.052h9.021a6.058,6.058,0,0,1,5.987,5.515l.027-.021v12.82H51.118a3.03,3.03,0,0,0,3.007-3.052V18.315A3.03,3.03,0,0,0,51.118,15.262Zm-3.007,12.21H42.1v-6.1h6.014ZM15.035,18.315a6.067,6.067,0,0,1,6.014-6.1H42.1V3.052A3.03,3.03,0,0,0,39.09,0H9.021A3.03,3.03,0,0,0,6.014,3.052V21.367h9.021Z"/>
</svg>
