<svg xmlns="http://www.w3.org/2000/svg" width="39.321" height="41.71" viewBox="0 0 39.321 41.71">
  <path id="Icon_ionic-ios-mail-open" data-name="Icon ionic-ios-mail-open" d="M41.7,18.8c-.378-.372-14.963-15.027-14.963-15.027a5.248,5.248,0,0,0-7.41.009S4.812,18.357,4.367,18.813a3.712,3.712,0,0,0-.992,2.43V40.981A3.011,3.011,0,0,0,6.4,43.96H39.671A3.011,3.011,0,0,0,42.7,40.981V21.15A3.558,3.558,0,0,0,41.7,18.8ZM39.87,22.742l-7.666,7.9a.178.178,0,0,0,0,.261l7.117,7.467a1.2,1.2,0,0,1,0,1.713,1.246,1.246,0,0,1-1.739,0L23.31,25.069a.376.376,0,0,0-.548,0L8.5,40.068a1.246,1.246,0,0,1-1.739,0,1.2,1.2,0,0,1,0-1.713l7.117-7.467a.2.2,0,0,0,0-.261l-7.694-7.9A2.118,2.118,0,0,1,7.7,19.4H38.367C39.926,19.39,40.786,21.829,39.87,22.742Z" transform="translate(-3.375 -2.25)"/>
</svg>
