<svg xmlns="http://www.w3.org/2000/svg" xmlns:xlink="http://www.w3.org/1999/xlink" width="1920" height="1080" viewBox="0 0 1920 1080" preserveAspectRatio="none">
  <defs>
    <clipPath id="clip-Contact">
      <rect width="1920" height="1080"/>
    </clipPath>
  </defs>
  <g id="Contact" clip-path="url(#clip-Contact)">
    <rect width="1920" height="1080" fill="#fff"/>
    <g id="dot-lines">
      <path id="Path_105" data-name="Path 105" d="M1837.948-148.407c7.668,4.614,382.362,153.433,583.3,373.179s69.879,328.1,220.466,505.805S3023.6,935.587,3023.6,935.587l12.249,94.163-1225.513,16.023V-148.407Z" transform="translate(-1870 137)" fill="none" stroke="#1009bf" stroke-width="5" stroke-dasharray="20 50"/>
      <path id="Path_106" data-name="Path 106" d="M1837.948-148.407c7.668,4.614,382.362,153.433,583.3,373.179s69.879,328.1,220.466,505.805S3023.6,935.587,3023.6,935.587l12.249,94.163-1225.513,16.023V-148.407Z" transform="translate(-1916 177)" fill="none" stroke="#0f05ff" stroke-width="5" stroke-dasharray="10"/>
      <path id="Path_107" data-name="Path 107" d="M1837.948-148.407c7.668,4.614,382.362,153.433,583.3,373.179s69.879,328.1,220.466,505.805S3023.6,935.587,3023.6,935.587l12.249,94.163-1225.513,16.023V-148.407Z" transform="translate(-1966 218)" fill="none" stroke="#ffae1b" stroke-width="5" stroke-dasharray="10"/>
      <path id="Path_108" data-name="Path 108" d="M1837.948-148.407c7.668,4.614,382.362,153.433,583.3,373.179s69.879,328.1,220.466,505.805S3023.6,935.587,3023.6,935.587l12.249,94.163-1225.513,16.023V-148.407Z" transform="translate(-2013 249)" fill="none" stroke="#edbe67" stroke-width="5" stroke-dasharray="10"/>
      <path id="Path_109" data-name="Path 109" d="M1837.948-148.407c7.668,4.614,382.362,153.433,583.3,373.179s69.879,328.1,220.466,505.805S3023.6,935.587,3023.6,935.587l12.249,94.163-1225.513,16.023V-148.407Z" transform="translate(-2076 275)" fill="none" stroke="#ea00b4" stroke-width="5" stroke-dasharray="10"/>
      <path id="Path_110" data-name="Path 110" d="M1837.948-148.407c7.668,4.614,382.362,153.433,583.3,373.179,105.7,115.586,126.177,224.557,149.551,314,21.045,80.526,45.289,144.3,121.566,198.407C2853.29,851.334,3023.6,935.587,3023.6,935.587l12.249,94.163-1225.513,16.023V-148.407Z" transform="translate(-2129 344)" fill="none" stroke="#04b4e8" stroke-width="5" stroke-dasharray="10"/>
      <path id="Path_111" data-name="Path 111" d="M1837.948-148.407c7.668,4.614,382.362,153.433,583.3,373.179s106,373.492,271.546,501.764,330.8,209.051,330.8,209.051l12.249,94.163-1225.513,16.023V-148.407Z" transform="translate(-2181 388)" fill="none" stroke="#00c764" stroke-width="5" stroke-dasharray="10"/>
      <path id="Path_112" data-name="Path 112" d="M1837.948-148.407c7.668,4.614,382.362,153.433,583.3,373.179,56.2,61.458,121.9,199.588,146.125,299.943a832.717,832.717,0,0,1,19.681,117.108s-35.568-47.584-14.187,15.3c15.507,45.608,34.53,32.958,68.846,73.453,150.588,177.7,381.884,205.01,381.884,205.01l12.249,94.163-1225.513,16.023V-148.407Z" transform="translate(-2213 456)" fill="none" stroke="#f5ff00" stroke-width="5" stroke-dasharray="20"/>
      <path id="Path_113" data-name="Path 113" d="M1837.948-148.407c7.668,4.614,382.362,153.433,583.3,373.179,129.205,141.3,157.5,366.778,157.5,366.778s9.2,75.586,62.965,139.027c150.588,177.7,381.884,205.01,381.884,205.01l12.249,94.163-1225.513,16.023V-148.407Z" transform="translate(-2270 488)" fill="none" stroke="#d90101" stroke-width="5" stroke-dasharray="10"/>
      <path id="Path_114" data-name="Path 114" d="M1837.948-148.407c7.668,4.614,382.362,153.433,583.3,373.179s69.879,328.1,220.466,505.805S3023.6,935.587,3023.6,935.587l12.249,94.163-1225.513,16.023V-148.407Z" transform="translate(-2303 555)" fill="none" stroke="#f800dc" stroke-width="5" stroke-dasharray="10"/>
      <path id="Path_115" data-name="Path 115" d="M1837.948-148.407c7.668,4.614,382.362,153.433,583.3,373.179s69.879,328.1,220.466,505.805S3023.6,935.587,3023.6,935.587l12.249,94.163-1225.513,16.023V-148.407Z" transform="translate(-2357 596)" fill="none" stroke="#ff3d03" stroke-width="5" stroke-dasharray="10"/>
      <path id="Path_116" data-name="Path 116" d="M1837.948-148.407c7.668,4.614,382.362,153.433,583.3,373.179C2514.489,326.733,2538.428,404.24,2550,476.233c13.388,83.3,11,159.094,91.719,254.344,150.588,177.7,381.884,205.01,381.884,205.01l12.249,94.163-1225.513,16.023V-148.407Z" transform="translate(-2404 631)" fill="none" stroke="#0c02ff" stroke-width="5" stroke-dasharray="10"/>
      <path id="Path_159" data-name="Path 159" d="M1837.948-148.407c7.668,4.614,382.362,153.433,583.3,373.179,27.73,30.325,60.233,70.841,77.067,97.616,25.207,40.092,35.741,115.407,35.741,115.407s9.265,176.672,107.658,292.783c150.588,177.7,381.884,205.01,381.884,205.01l12.249,94.163-1225.513,16.023V-148.407Z" transform="translate(-2446 682)" fill="none" stroke="#ff00c6" stroke-width="5" stroke-dasharray="10"/>
    </g>
  </g>
</svg>
