<svg xmlns="http://www.w3.org/2000/svg" width="76.385" height="75.287" viewBox="0 0 76.385 75.287">
  <path id="Icon_feather-phone-call" data-name="Icon feather-phone-call" d="M47.216,14.884A16.879,16.879,0,0,1,60.664,28.1M47.216,1.5A30.382,30.382,0,0,1,74.282,28.067m-3.4,26.7V64.806a6.639,6.639,0,0,1-2.206,4.958A6.884,6.884,0,0,1,63.456,71.5,68.137,68.137,0,0,1,34.075,61.225,65.829,65.829,0,0,1,13.647,41.15,65.486,65.486,0,0,1,3.2,12.14,6.62,6.62,0,0,1,4.948,7.026,6.864,6.864,0,0,1,9.97,4.846H20.184A6.773,6.773,0,0,1,26.993,10.6,42.358,42.358,0,0,0,29.376,20a6.609,6.609,0,0,1-1.532,7.06l-4.324,4.249A54.014,54.014,0,0,0,43.948,51.388l4.324-4.249a6.9,6.9,0,0,1,7.184-1.506,44.342,44.342,0,0,0,9.567,2.342A6.727,6.727,0,0,1,70.878,54.768Z" transform="translate(-0.665 1.257)" fill="none" stroke="#000" stroke-linecap="round" stroke-linejoin="round" stroke-width="5"/>
</svg>
