<svg xmlns="http://www.w3.org/2000/svg" xmlns:xlink="http://www.w3.org/1999/xlink" width="82" height="96" viewBox="0 0 82 96">
  <defs>
    <filter id="Polygon_3" x="12" y="12" width="70" height="84" filterUnits="userSpaceOnUse">
      <feOffset dx="6" dy="6" input="SourceAlpha"/>
      <feGaussianBlur stdDeviation="4.5" result="blur"/>
      <feFlood flood-color="#fff"/>
      <feComposite operator="in" in2="blur"/>
      <feComposite in="SourceGraphic"/>
    </filter>
    <filter id="Polygon_4" x="0" y="0" width="70" height="84" filterUnits="userSpaceOnUse">
      <feOffset dx="-6" dy="-6" input="SourceAlpha"/>
      <feGaussianBlur stdDeviation="4.5" result="blur-2"/>
      <feFlood flood-opacity="0.173"/>
      <feComposite operator="in" in2="blur-2"/>
      <feComposite in="SourceGraphic"/>
    </filter>
  </defs>
  <g id="play_button" transform="translate(19.5 19.5)">
    <g transform="matrix(1, 0, 0, 1, -19.5, -19.5)" filter="url(#Polygon_3)">
      <g id="Polygon_3-2" data-name="Polygon 3" transform="translate(62.5 19.5) rotate(90)" fill="#ecf0f3">
        <path d="M 47.68751907348633 42.50000381469727 L 9.312479972839355 42.50000381469727 C 7.62716007232666 42.50000381469727 6.14503002166748 41.61353302001953 5.347799777984619 40.12869262695312 C 4.550570011138916 38.64385223388672 4.63047981262207 36.91870498657227 5.561560153961182 35.51392364501953 L 24.74908065795898 6.564323902130127 C 25.58489036560059 5.303274154663086 26.98711013793945 4.550404071807861 28.5 4.550404071807861 C 30.01288986206055 4.550404071807861 31.41510963439941 5.303274154663086 32.25091934204102 6.564323902130127 L 51.43844985961914 35.51392364501953 C 52.36952972412109 36.91870498657227 52.44944000244141 38.64385223388672 51.6522102355957 40.12869262695312 C 50.8549690246582 41.61353302001953 49.37284851074219 42.50000381469727 47.68751907348633 42.50000381469727 Z" stroke="none"/>
        <path d="M 28.5 5.050403594970703 C 27.13512992858887 5.050403594970703 25.91987991333008 5.702884674072266 25.16584968566895 6.840553283691406 L 5.978321075439453 35.79015350341797 C 5.150688171386719 37.03885269165039 5.079658508300781 38.57231521606445 5.788311004638672 39.89217376708984 C 6.496959686279297 41.2120246887207 7.814411163330078 42.00000381469727 9.312480926513672 42.00000381469727 L 47.68751907348633 42.00000381469727 C 49.18558120727539 42.00000381469727 50.50302886962891 41.2120361328125 51.2116813659668 39.89217376708984 C 51.92033004760742 38.57231521606445 51.84930038452148 37.03885269165039 51.02167892456055 35.79015350341797 L 31.83415031433105 6.840553283691406 C 31.08012008666992 5.702884674072266 29.86487007141113 5.050403594970703 28.5 5.050403594970703 M 28.5 4.050399780273438 C 30.0894718170166 4.050399780273438 31.67894554138184 4.796298980712891 32.66769027709961 6.288093566894531 L 51.85522079467773 35.23769378662109 C 54.05809020996094 38.56133270263672 51.67491149902344 43.00000381469727 47.68751907348633 43.00000381469727 L 9.312480926513672 43.00000381469727 C 5.325080871582031 43.00000381469727 2.941898345947266 38.56133270263672 5.144779205322266 35.23769378662109 L 24.33230972290039 6.288093566894531 C 25.32105445861816 4.796298980712891 26.9105281829834 4.050399780273438 28.5 4.050399780273438 Z" stroke="none" fill="#cedd07"/>
      </g>
    </g>
    <g transform="matrix(1, 0, 0, 1, -19.5, -19.5)" filter="url(#Polygon_4)">
      <g id="Polygon_4-2" data-name="Polygon 4" transform="translate(62.5 19.5) rotate(90)" fill="#ecf0f3">
        <path d="M 47.68751907348633 40.50000381469727 L 9.312479972839355 40.50000381469727 C 7.962910175323486 40.50000381469727 7.322559833526611 39.57871246337891 7.109879970550537 39.18261337280273 C 6.897210121154785 38.78650283813477 6.483049869537354 37.7437629699707 7.228640079498291 36.61884307861328 L 26.41616058349609 7.669244289398193 C 26.88743019104004 6.95820426940918 27.64695930480957 6.550404071807861 28.5 6.550404071807861 C 29.35304069519043 6.550404071807861 30.11256980895996 6.95820426940918 30.58383941650391 7.669244289398193 L 49.77136993408203 36.61884307861328 C 50.51696014404297 37.7437629699707 50.10279846191406 38.78650283813477 49.89012908935547 39.1826057434082 C 49.67744827270508 39.57871246337891 49.03710174560547 40.50000381469727 47.68751907348633 40.50000381469727 Z" stroke="none"/>
        <path d="M 28.4999885559082 9.050399780273438 L 28.5 9.050411224365234 L 9.312492370605469 37.99997329711914 C 9.312496185302734 37.99998092651367 9.3125 37.9999885559082 9.312477111816406 38 L 47.6874885559082 38 C 47.68749237060547 37.99999237060547 47.68749618530273 37.99998474121094 47.68752288818359 38.00000762939453 L 28.4999885559082 9.050399780273438 M 28.5 4.050407409667969 C 30.0894718170166 4.050407409667969 31.6789436340332 4.796302795410156 32.66768646240234 6.288097381591797 L 51.85520935058594 35.23769760131836 C 54.05809020996094 38.56133270263672 51.67491149902344 43 47.68752288818359 43 L 9.312477111816406 43 C 5.325088500976562 43 2.941898345947266 38.56133270263672 5.144779205322266 35.23769760131836 L 24.33230972290039 6.288097381591797 C 25.3210563659668 4.796302795410156 26.9105281829834 4.050407409667969 28.5 4.050407409667969 Z" stroke="none" fill="#cedd07"/>
      </g>
    </g>
  </g>
</svg>
